<svg xmlns="http://www.w3.org/2000/svg" data-logo="logo" viewBox="0 0 241 42"><g style="opacity:1"><path fill="#00C951" d="M33.724 37.58A21.429 21.429 0 0 0 3.419 7.277l7.072 7.071c1.115 1.116 2.917 1.06 4.337.371a8.57 8.57 0 0 1 11.454 11.455c-.69 1.42-.745 3.221.37 4.337l7.072 7.07Z"/><path fill="#26E860" d="M30 41H19.51a5.714 5.714 0 0 1-4.04-1.674L1.673 25.531A5.714 5.714 0 0 1 0 21.49V11l30 30Z"/><path fill="#87DEA1" d="M10.714 41H4.286A4.286 4.286 0 0 1 0 36.714v-6.428L10.714 41Z"/></g><path fill="#26E860" d="M30.33 28H6.7v-5.74h1.75V6.51H6.7V.77h23.63v10.57h-7.84V6.51h-4.24v5.53h3.08v3.99h-3.08v6.23h4.24v-5.53h7.84V28Zm13.05-6.96H32.15v-5.75h11.23v5.75Zm12.29 7.45q-5.01 0-7.81-2.61t-2.8-7.61q0-5.01 2.8-7.61 2.8-2.61 7.77-2.61 2.42 0 4.62.66 2.21.67 3.43 1.51v6.93h-6.02v-.63q0-1.16-.49-1.7t-1.54-.54q-2.03 0-2.03 2.24v3.01q0 2.73 3.12 2.73 2.9 0 6.75-.63v5.5q-1.19.52-3.34.94-2.15.42-4.46.42Zm19.63 0q-4.97 0-7.77-2.61t-2.8-7.61q0-5.01 2.8-7.61 2.8-2.61 7.77-2.61 5.04 0 7.81 2.64 2.76 2.64 2.76 7.58 0 5-2.8 7.61-2.8 2.61-7.77 2.61Zm0-6.23q1.02 0 1.52-.54.51-.55.51-1.7v-3.5q0-1.16-.51-1.7-.5-.54-1.52-.54-1.01 0-1.52.54t-.51 1.7v3.5q0 1.15.51 1.7.51.54 1.52.54Zm45.5 0h1.54V28h-11.06v-5.74h1.47v-5.74q0-1.16-.49-1.7t-1.47-.54q-2.1 0-2.1 2.24v5.74h1.47V28H99.17v-5.74h1.47v-5.74q0-1.16-.49-1.7t-1.47-.54q-2.1 0-2.1 2.24v5.74h1.47V28H86.99v-5.74h1.54v-7.98h-1.54V8.54h9.59v2.73q2.52-3.22 6.3-3.22 2.14 0 3.48 1 1.35.99 1.91 2.81 1.26-1.82 2.89-2.8 1.63-.98 3.83-.98 2.91 0 4.36 1.82 1.45 1.82 1.45 5.01v7.35ZM147.16 28h-23.63v-5.74h1.75V6.51h-1.75V.77h23.63v10.57h-7.84V6.51h-4.24v5.53h3.08v3.99h-3.08v6.23h4.24v-5.53h7.84V28Zm8.15.49q-3.57 0-5.37-2.66-1.8-2.66-1.8-7.56 0-4.9 1.8-7.56 1.8-2.66 5.37-2.66 1.79 0 3.17.87 1.38.88 2.26 2V6.51h-2.07V.77h10.12v21.49h1.54V28h-9.59v-2.38q-.88 1.12-2.26 1.99-1.38.88-3.17.88Zm3.4-6.23q1.01 0 1.52-.54.51-.55.51-1.7v-3.5q0-1.16-.51-1.7t-1.52-.54q-1.02 0-1.53.54-.5.54-.5 1.7v3.5q0 1.15.5 1.7.51.54 1.53.54Zm34.23 0h1.54V28h-9.59v-2.73q-2.52 3.22-6.3 3.22-2.91 0-4.36-1.82-1.45-1.82-1.45-5.01v-7.38h-1.54V8.54h9.59v11.48q0 1.15.5 1.7.51.54 1.53.54 1.01 0 1.52-.54.51-.55.51-1.7v-5.74H183V8.54h9.94v13.72Z" style="opacity:1" transform="translate(46 7)"/></svg>